<?xml version="1.0" encoding="UTF-8"?>
<svg width="512" height="512" viewBox="0 0 512 512" fill="none" xmlns="http://www.w3.org/2000/svg">
    <defs>
        <linearGradient id="logo-gradient" x1="0%" y1="0%" x2="100%" y2="0%">
            <stop offset="0%" style="stop-color:#00f5d4" />
            <stop offset="50%" style="stop-color:#ffffff" />
            <stop offset="100%" style="stop-color:#01c1a7" />
        </linearGradient>
        <filter id="glow" x="-20%" y="-20%" width="140%" height="140%">
            <feGaussianBlur stdDeviation="15" result="blur" />
            <feComposite in="SourceGraphic" in2="blur" operator="over" />
        </filter>
    </defs>
    <!-- Background -->
    <rect width="512" height="512" rx="64" fill="#000814" />
    
    <!-- Icon Group -->
    <g filter="url(#glow)">
        <!-- Stylized Circle / Reclaim Motif -->
        <circle cx="256" cy="220" r="100" stroke="url(#logo-gradient)" stroke-width="20" fill="none" />
        
        <!-- Icon: Hands Holding Circle (simplified FontAwesome representation) -->
        <path d="M256 160C222.9 160 196 186.9 196 220C196 253.1 222.9 280 256 280C289.1 280 316 253.1 316 220C316 186.9 289.1 160 256 160ZM256 260C233.9 260 216 242.1 216 220C216 197.9 233.9 180 256 180C278.1 180 296 197.9 296 220C296 242.1 278.1 260 256 260Z" fill="url(#logo-gradient)" />
        
        <!-- Hands support -->
        <path d="M140 320C140 320 180 380 256 380C332 380 372 320 372 320" stroke="url(#logo-gradient)" stroke-width="20" stroke-linecap="round" fill="none" />
    </g>
    
    <!-- Text -->
    <text x="256" y="460" text-anchor="middle" font-family="'Outfit', sans-serif" font-weight="700" font-size="52" fill="url(#logo-gradient)">CampusReclaim</text>
</svg>
